<svg xmlns="http://www.w3.org/2000/svg" width="20" height="20" viewBox="0 0 20 20" fill="none">
  <path d="M16.877 9.99961H14.7993C14.7011 9.99948 14.6047 10.0253 14.5197 10.0744C14.4347 10.1235 14.3641 10.1942 14.3152 10.2794L11.4682 15.2527C11.4193 15.3378 11.3487 15.4085 11.2637 15.4576C11.1787 15.5067 11.0822 15.5325 10.9841 15.5324H9.08047C8.77289 15.5324 8.52359 15.2847 8.52359 14.9791V10.8503C8.52359 10.4683 8.21187 10.1587 7.82742 10.1587C7.70981 10.1585 7.59406 10.1881 7.49096 10.2447C7.38786 10.3013 7.30077 10.3831 7.23781 10.4824L4.50711 15.2527C4.4582 15.3378 4.38768 15.4085 4.30268 15.4576C4.21768 15.5067 4.12122 15.5325 4.02305 15.5324H1.5625V14.2184L6.97133 4.74703C7.0202 4.66177 7.09074 4.59095 7.17581 4.54174C7.26087 4.49253 7.35743 4.46667 7.4557 4.4668H9.35898C9.66656 4.4668 9.91586 4.71453 9.91586 5.02008V9.99961H10.6343C10.8355 9.99961 11.021 9.8918 11.1196 9.71758L13.9328 4.74883C13.9815 4.66308 14.0521 4.5918 14.1374 4.54225C14.2227 4.4927 14.3196 4.46667 14.4182 4.4668H16.3201C16.6276 4.4668 16.877 4.71453 16.877 5.02008V9.99961ZM16.877 9.99961L17.7471 11.8583L18.3855 13.2221C18.4235 13.3031 18.4411 13.392 18.4369 13.4813C18.4327 13.5706 18.4068 13.6576 18.3614 13.7346L17.4651 15.2583C17.4157 15.3419 17.3454 15.4111 17.2611 15.4592C17.1768 15.5073 17.0814 15.5325 16.9843 15.5324H13.6841L16.877 9.99961Z" fill="#3700D4"/>
</svg>
