<svg preserveAspectRatio="xMidYMid meet" width="100%" height="100%" overflow="visible" style="display: block;" viewBox="0 0 19.9492 29.0882" fill="none" xmlns="http://www.w3.org/2000/svg">
<g id="Layer 3">
<path id="Vector" d="M18.1814 14.1187C18.1814 13.7524 18.0344 13.4012 17.7727 13.1422C17.511 12.8832 17.1561 12.7377 16.786 12.7377C16.416 12.7377 16.0611 12.8832 15.7994 13.1422C15.5377 13.4012 15.3907 13.7524 15.3907 14.1187C15.398 14.3812 15.4874 14.635 15.6465 14.8452C15.8056 15.0554 16.0266 15.2117 16.2791 15.2925V17.3961C15.6709 15.8548 14.5328 14.5752 13.0651 13.7826C13.2791 13.3223 13.4977 12.9264 13.707 12.5628C14.5065 11.3924 15.3877 10.2788 16.3442 9.23009C16.8698 8.61326 17.3674 8.03326 17.7721 7.52691C18.907 6.11834 20.1535 4.03771 19.9209 2.80405C19.8927 2.63114 19.8258 2.46664 19.7253 2.32252C19.6247 2.17839 19.4929 2.05826 19.3395 1.97088C17.7628 1.05024 15.6186 4.04231 13.5116 6.9285C12.1163 8.83421 11.3953 11.5317 11.0651 13.0461C10.4189 12.906 9.75926 12.835 9.09767 12.8344C8.13576 12.8314 7.18005 12.987 6.26977 13.2947C6.21054 11.6053 6.26181 9.91398 6.42326 8.2312C6.88837 3.85358 6.68372 1.28501 5.82326 0.4058C5.71284 0.273639 5.57321 0.168372 5.41513 0.0981329C5.25706 0.0278941 5.08479 -0.00543503 4.91163 0.000721068C2.37209 0.125007 2.66046 7.63278 2.70233 8.48897C2.80465 10.542 3.63256 13.0369 4.13488 14.4179C2.96277 15.3356 2.10915 16.5923 1.69302 18.0129H1.51163C1.32049 18.0043 1.12953 18.0333 0.94979 18.0982C0.770052 18.1631 0.605111 18.2627 0.464519 18.3911C0.323927 18.5195 0.210479 18.6743 0.130743 18.8464C0.0510071 19.0186 0.0065683 19.2046 0 19.3939L0 21.7737C0.00718051 21.9628 0.0520309 22.1486 0.131975 22.3204C0.211919 22.4923 0.325381 22.6468 0.465844 22.7751C0.606307 22.9034 0.771002 23.003 0.95047 23.0682C1.12994 23.1333 1.32064 23.1627 1.51163 23.1547H1.8186C2.16818 23.9656 2.69008 24.6925 3.34884 25.286L2.88372 25.691C2.77527 25.7837 2.7081 25.9149 2.69678 26.0562C2.68547 26.1975 2.73091 26.3376 2.82326 26.446C4.2186 28.1261 6.50233 29.0882 9.06512 29.0882C11.6279 29.0882 13.9209 28.1261 15.307 26.446C15.3993 26.3376 15.4448 26.1975 15.4334 26.0562C15.4221 25.9149 15.355 25.7837 15.2465 25.691L14.7814 25.286C15.4421 24.6797 15.9639 23.9404 16.3116 23.1179H16.6605C16.8514 23.1259 17.0422 23.0965 17.2216 23.0313C17.4011 22.9662 17.5658 22.8666 17.7062 22.7383C17.8467 22.61 17.9602 22.4554 18.0401 22.2836C18.1201 22.1117 18.1649 21.926 18.1721 21.7369V19.3755C18.1652 19.1056 18.077 18.8439 17.9187 18.6241C17.7604 18.4043 17.5392 18.2363 17.2837 18.1418V15.2925C17.5383 15.2139 17.7617 15.0585 17.9227 14.848C18.0836 14.6375 18.1741 14.3825 18.1814 14.1187Z" fill="#CDCCCC"/>
<path id="Vector_2" d="M6.8 25.6589C7.22791 25.3781 6.10233 25.484 6.0093 25.2953C5.55978 25.2559 5.11464 25.1773 4.67907 25.0605C3.88837 24.8534 1.9907 23.5921 1.78605 22.3815C1.5814 21.1708 1.78605 18.8738 2.64186 17.4929C3.1777 16.6516 3.86881 15.9176 4.67907 15.3294C4.67907 15.3294 3.0186 11.4213 2.87907 8.47067C2.73954 5.52003 2.97209 0.267809 4.91628 0.175745C6.86047 0.0836819 6.57674 4.99987 6.24651 8.19908C6.05043 10.3233 6.01933 12.4593 6.15349 14.5883C6.98164 14.328 7.84296 14.1854 8.71163 14.1648C9.47706 14.1472 10.2419 14.2183 10.9907 14.3765C10.9907 14.3765 11.6093 9.84701 13.6465 7.01146C15.6837 4.1759 17.8326 1.28051 19.2279 2.10448C20.6233 2.92844 18.8465 5.86987 17.614 7.40273C16.3814 8.93559 14.2465 11.2372 13.5349 12.4662C13.0684 13.284 12.6566 14.1313 12.3023 15.0026C13.5714 15.6472 14.6092 16.6629 15.2744 17.9118C16.2791 19.8957 16.3535 22.3354 15.814 23.3711C15.543 23.8494 15.1686 24.2625 14.7175 24.5808C14.2665 24.8991 13.7498 25.1148 13.2047 25.2124C12.586 25.24 9.98605 25.8799 9.98605 25.8799L6.8 25.6589Z" fill="white"/>
<path id="Vector_3" d="M11.3535 14.418C11.3535 14.418 12.907 10.4086 14.2977 8.15765C15.6884 5.9067 17.5535 4.20352 18.1395 4.54876C18.7256 4.894 16.9442 6.99765 15.3814 9.06448C14.1084 10.8895 12.9541 12.7929 11.9256 14.7632L11.3535 14.418Z" fill="#DD00A1"/>
<path id="Vector_4" d="M5.11628 15.1038L5.5814 14.7632C5.5814 14.7632 5.51628 10.7538 5.5814 8.31876C5.64651 5.88368 5.77209 2.84098 4.94884 2.8686C4.12558 2.89622 3.55349 5.24844 3.87442 8.56733C4.10552 10.7763 4.52089 12.9626 5.11628 15.1038Z" fill="#DD00A1"/>
<path id="Vector_5" d="M3.73023 23.698C4.22857 23.698 4.63256 23.2982 4.63256 22.805C4.63256 22.3118 4.22857 21.9119 3.73023 21.9119C3.23189 21.9119 2.82791 22.3118 2.82791 22.805C2.82791 23.2982 3.23189 23.698 3.73023 23.698Z" fill="#F9D8D2"/>
<path id="Vector_6" d="M14.3953 23.698C14.8937 23.698 15.2977 23.2982 15.2977 22.805C15.2977 22.3118 14.8937 21.9119 14.3953 21.9119C13.897 21.9119 13.493 22.3118 13.493 22.805C13.493 23.2982 13.897 23.698 14.3953 23.698Z" fill="#F9D8D2"/>
<path id="Vector_7" d="M10.5581 22.7313C10.5484 22.7256 10.5377 22.722 10.5265 22.7205C10.5153 22.7191 10.5039 22.7199 10.4931 22.7229C10.4822 22.7259 10.4721 22.7311 10.4633 22.738C10.4545 22.745 10.4472 22.7537 10.4419 22.7635C10.4419 22.7635 10.1721 23.2238 9.7814 23.2515C9.64906 23.2476 9.51892 23.217 9.39895 23.1616C9.27898 23.1062 9.17171 23.0271 9.08372 22.9292V22.248C9.33489 22.1099 9.73954 21.6956 9.73954 21.5529C9.70428 21.4008 9.61481 21.2663 9.48753 21.1742C9.36025 21.082 9.20368 21.0383 9.04651 21.0511C8.5814 21.0511 8.25581 21.3503 8.25581 21.5989C8.25581 21.8475 8.76744 22.1697 8.91163 22.2618V22.9338C8.83823 23.0261 8.74605 23.102 8.64109 23.1567C8.53612 23.2115 8.42071 23.2437 8.30233 23.2515C7.93488 23.2515 7.65582 22.7543 7.65116 22.7497C7.64029 22.7299 7.62214 22.7151 7.60048 22.7082C7.57883 22.7014 7.55533 22.703 7.53488 22.7129C7.51457 22.7245 7.49945 22.7433 7.49255 22.7655C7.48565 22.7877 7.48748 22.8117 7.49768 22.8326C7.49768 22.8326 7.82791 23.4264 8.30233 23.4264C8.43633 23.4206 8.56773 23.3878 8.68849 23.33C8.80925 23.2722 8.91683 23.1907 9.00465 23.0903C9.19769 23.2905 9.46038 23.4107 9.73954 23.4264H9.79535C9.96293 23.3937 10.1211 23.3248 10.2586 23.2245C10.3962 23.1243 10.5095 22.9951 10.5907 22.8464C10.5964 22.8368 10.6001 22.8261 10.6016 22.815C10.603 22.804 10.6022 22.7927 10.5992 22.782C10.5961 22.7712 10.5909 22.7612 10.5839 22.7525C10.5768 22.7438 10.5681 22.7366 10.5581 22.7313Z" fill="#10110E"/>
<path id="Vector_8" d="M4.67907 15.3386C4.67907 15.3386 3.3907 12.1164 3.14419 10.4316C2.89767 8.74686 2.67907 5.93432 3.00465 4.06082C3.14454 3.19773 3.33399 2.34322 3.57209 1.50146C3.57209 1.50146 2.97209 5.86987 3.19535 7.78019C3.4186 9.69051 4.67907 15.3386 4.67907 15.3386Z" fill="#E5E5E5"/>
<path id="Vector_9" d="M10.9907 14.3765C10.9907 14.3765 11.9209 9.50178 13.2744 7.58686C14.6279 5.67194 16.307 3.34733 17.1581 2.76273L18.0093 2.17352C18.0093 2.17352 14.5953 5.71797 13.2744 8.61797C11.9535 11.518 10.9907 14.3765 10.9907 14.3765Z" fill="#E5E5E5"/>
<path id="Vector_10" d="M5.58139 19.9003C5.44137 19.8994 5.30423 19.9397 5.18736 20.016C5.07049 20.0923 4.97915 20.2013 4.92493 20.3291C4.8707 20.4568 4.85604 20.5977 4.88279 20.7337C4.90954 20.8697 4.9765 20.9948 5.07519 21.0931C5.17387 21.1914 5.29983 21.2585 5.4371 21.2859C5.57437 21.3133 5.71675 21.2997 5.84621 21.2469C5.97566 21.1941 6.08635 21.1044 6.16424 20.9892C6.24213 20.8741 6.28372 20.7386 6.28372 20.6C6.28372 20.4153 6.20988 20.238 6.0783 20.1069C5.94672 19.9758 5.76809 19.9016 5.58139 19.9003ZM5.7814 20.5494C5.73082 20.5494 5.68231 20.5295 5.64655 20.4941C5.61079 20.4587 5.5907 20.4107 5.5907 20.3607C5.5907 20.3106 5.61079 20.2626 5.64655 20.2272C5.68231 20.1918 5.73082 20.1719 5.7814 20.1719C5.83197 20.1719 5.88048 20.1918 5.91624 20.2272C5.952 20.2626 5.97209 20.3106 5.97209 20.3607C5.97212 20.3862 5.9669 20.4116 5.95674 20.4351C5.94658 20.4586 5.9317 20.4798 5.91299 20.4975C5.89429 20.5151 5.87215 20.5288 5.84793 20.5378C5.82371 20.5467 5.79791 20.5506 5.77209 20.5494H5.7814Z" fill="#10110E"/>
<path id="Vector_11" d="M12.5209 19.9003C12.3811 19.9003 12.2444 19.9414 12.1282 20.0183C12.0119 20.0951 11.9213 20.2044 11.8678 20.3323C11.8143 20.4601 11.8003 20.6008 11.8275 20.7365C11.8548 20.8723 11.9221 20.9969 12.021 21.0948C12.1199 21.1926 12.2459 21.2593 12.383 21.2863C12.5201 21.3133 12.6623 21.2994 12.7915 21.2465C12.9207 21.1935 13.0311 21.1038 13.1088 20.9888C13.1864 20.8737 13.2279 20.7384 13.2279 20.6C13.2279 20.4145 13.1534 20.2365 13.0208 20.1053C12.8883 19.9741 12.7084 19.9003 12.5209 19.9003ZM12.7209 20.5494C12.6707 20.5482 12.6229 20.528 12.5874 20.4928C12.5519 20.4577 12.5314 20.4103 12.5302 20.3607C12.5374 20.3151 12.5608 20.2736 12.5962 20.2436C12.6316 20.2136 12.6767 20.1971 12.7233 20.1971C12.7699 20.1971 12.8149 20.2136 12.8503 20.2436C12.8857 20.2736 12.9091 20.3151 12.9163 20.3607C12.9151 20.4111 12.8939 20.4591 12.8574 20.4944C12.8209 20.5297 12.7719 20.5494 12.7209 20.5494Z" fill="#10110E"/>
<path id="Vector_12" opacity="0.2" d="M9.17674 25.5392C12.7987 25.5392 15.7349 23.4454 15.7349 20.8624C15.7349 18.2795 12.7987 16.1856 9.17674 16.1856C5.55478 16.1856 2.6186 18.2795 2.6186 20.8624C2.6186 23.4454 5.55478 25.5392 9.17674 25.5392Z" fill="#8ACCCE"/>
<path id="Vector_13" d="M17.1163 18.2616V15.1913C17.361 15.1379 17.5812 15.0061 17.7426 14.8164C17.9041 14.6267 17.9978 14.3896 18.0093 14.1418C17.977 13.8424 17.8339 13.5654 17.6077 13.3642C17.3814 13.1629 17.0879 13.0515 16.7837 13.0515C16.4795 13.0515 16.186 13.1629 15.9598 13.3642C15.7335 13.5654 15.5905 13.8424 15.5581 14.1418C15.5686 14.3892 15.6614 14.6262 15.8221 14.816C15.9827 15.0058 16.2023 15.1377 16.4465 15.1913V18.1834H16.3581C15.4279 14.9888 12.6791 13.0048 9.09302 13.0048C5.50698 13.0048 2.73953 14.9703 1.82326 18.1834H1.51163C1.1746 18.167 0.844697 18.2832 0.593797 18.5065C0.342896 18.7298 0.191322 19.0422 0.172093 19.3756V21.7554C0.1925 22.088 0.344584 22.3992 0.595354 22.6216C0.846124 22.8439 1.17536 22.9594 1.51163 22.943H1.93488C2.29453 23.8459 2.86891 24.6497 3.6093 25.2861L3.00465 25.82C2.96746 25.851 2.93684 25.889 2.91458 25.9317C2.89232 25.9745 2.87885 26.0212 2.87496 26.0692C2.87106 26.1171 2.87682 26.1653 2.8919 26.2111C2.90698 26.2568 2.93107 26.2991 2.96279 26.3356C4.32093 27.9605 6.54884 28.9134 9.06977 28.9134C11.5907 28.9134 13.8186 27.9927 15.1767 26.3356C15.2085 26.2991 15.2326 26.2568 15.2476 26.2111C15.2627 26.1653 15.2685 26.1171 15.2646 26.0692C15.2607 26.0212 15.2472 25.9745 15.225 25.9317C15.2027 25.889 15.1721 25.851 15.1349 25.82L14.5302 25.2861C15.2675 24.6469 15.8413 23.844 16.2047 22.943H16.6698C17.006 22.9594 17.3353 22.8439 17.586 22.6216C17.8368 22.3992 17.9889 22.088 18.0093 21.7554V19.3756C17.9989 19.1202 17.9068 18.8747 17.7463 18.6745C17.5858 18.4743 17.3652 18.3297 17.1163 18.2616ZM9.09302 16.3973C12.414 16.3973 15.1116 18.5608 15.1116 21.2169C15.1116 24.0938 12.0791 25.3597 9.09302 25.3597C6.10698 25.3597 3.07442 24.0708 3.07442 21.2169C3.07442 18.5608 5.77209 16.3973 9.09302 16.3973Z" fill="white"/>
<path id="Vector_14" d="M17.3395 20.9591H16.4465C16.4465 20.821 16.4465 20.6829 16.4465 20.5264C16.446 19.939 16.3868 19.353 16.2698 18.7772H16.6465C16.7305 18.7716 16.8148 18.7827 16.8943 18.81C16.9738 18.8373 17.047 18.8801 17.1095 18.9359C17.172 18.9918 17.2225 19.0594 17.258 19.135C17.2935 19.2105 17.3134 19.2923 17.3163 19.3756L17.3395 20.9591Z" fill="#515151"/>
<path id="Vector_15" d="M16.6698 22.3492H16.2047C16.2932 22.024 16.36 21.6934 16.4047 21.3596H17.3349V21.7554C17.332 21.8381 17.3123 21.9193 17.277 21.9943C17.2417 22.0693 17.1915 22.1364 17.1295 22.1918C17.0674 22.2472 16.9948 22.2897 16.9158 22.3168C16.8368 22.3438 16.7531 22.3548 16.6698 22.3492Z" fill="#515151"/>
<path id="Vector_16" d="M9.09302 28.3011C6.86046 28.3011 4.87907 27.5048 3.62791 26.0962L4.25581 25.5438C5.68506 26.4883 7.3751 26.9708 9.09302 26.9248C10.8108 26.9698 12.5006 26.4874 13.9302 25.5438L14.5535 26.0962C13.307 27.5048 11.3209 28.3011 9.09302 28.3011Z" fill="#515151"/>
<path id="Vector_17" d="M1.51163 18.7772H1.91163C1.7955 19.3532 1.7363 19.939 1.73488 20.5264C1.72378 20.6704 1.72378 20.8151 1.73488 20.9591H0.865116V19.3756C0.863502 19.293 0.879456 19.211 0.911943 19.1349C0.944431 19.0588 0.992725 18.9903 1.05369 18.9339C1.11466 18.8774 1.18693 18.8343 1.26582 18.8073C1.34472 18.7803 1.42846 18.7701 1.51163 18.7772Z" fill="#515151"/>
<path id="Vector_18" d="M9.09302 16.0015C8.33751 16.0037 7.58602 16.1106 6.86047 16.3191V13.9208C7.58659 13.717 8.33828 13.6163 9.09302 13.6216C9.84622 13.6166 10.5963 13.7173 11.3209 13.9208V16.3375C10.5998 16.1142 9.84859 16.0009 9.09302 16.0015Z" fill="black"/>
<path id="Vector_19" d="M6.4186 14.0589V16.4802C4.18605 17.2903 2.62791 19.1178 2.62791 21.2169C2.62791 23.9373 5.23721 25.7786 9.09302 25.7786C12.9488 25.7786 15.5581 23.9373 15.5581 21.2169C15.5581 19.1178 13.9953 17.2903 11.7674 16.4802V14.0589C14.3767 14.9796 16.0047 17.3686 16.0047 20.5448C16.0047 24.1169 13.2372 26.5289 9.09302 26.5289C4.94884 26.5289 2.1814 24.1307 2.1814 20.5448C2.1814 17.3686 3.8093 14.9888 6.4186 14.0589Z" fill="#515151"/>
<path id="Vector_20" d="M0.84186 21.3596H1.77209C1.81452 21.6938 1.88136 22.0246 1.97209 22.3492H1.50698C1.42337 22.3548 1.33947 22.3438 1.26023 22.3168C1.18099 22.2898 1.10801 22.2474 1.04559 22.1921C0.983169 22.1367 0.932575 22.0696 0.896788 21.9946C0.861 21.9196 0.840742 21.8383 0.837209 21.7554L0.84186 21.3596Z" fill="#515151"/>
<path id="Vector_21" d="M16.7814 14.6159C17.0896 14.6159 17.3395 14.3933 17.3395 14.1188C17.3395 13.8442 17.0896 13.6216 16.7814 13.6216C16.4731 13.6216 16.2233 13.8442 16.2233 14.1188C16.2233 14.3933 16.4731 14.6159 16.7814 14.6159Z" fill="#515151"/>
</g>
</svg>
